<?xml version="1.0" encoding="utf-8"?>
<!-- Generator: Adobe Illustrator 24.0.1, SVG Export Plug-In . SVG Version: 6.00 Build 0)  -->
<svg version="1.1" id="layer" xmlns="http://www.w3.org/2000/svg" xmlns:xlink="http://www.w3.org/1999/xlink" x="0px" y="0px"
	 viewBox="0 0 600 208.4" style="enable-background:new 0 0 600 208.4;" xml:space="preserve">
<style type="text/css">
	.st0{fill:#FF6B00;}
	.st1{fill:#EB0029;}
</style>
<path class="st0" d="M44.6,96.4l32.5,84.4H59.5L40,125.1l-2.9-9.2h-0.3l-2.6,9.1l-17,56H0l26.6-77.7C34.2,81,43.1,72.8,59.3,72.8
	c4.4,0,8.4,0.8,11,1.8v13.1c-2.9-0.6-5.5-0.8-8.7-0.8C52.8,86.6,48.2,89,44.6,96.4 M145.3,143.2c0,18.6-8.1,27.3-19.5,27.3
	c-12,0-22.3-9.4-22.3-29.2v-1.5c0-15.5,10.2-25,22.3-25c12.3,0,19.5,8.7,19.5,22.8V143.2z M130,101.8c-11.3,0-20.8,4.9-26.5,14.9
	h-0.3l0.3-8.1V73H86.1v107.8H99c1.6-2.9,2.7-6.5,3.4-12.1h0.3c5.8,9.5,16,13.9,26.3,13.9c19.1,0,33.6-14.4,33.6-41.5v-0.2
	C162.8,117.7,151,101.8,130,101.8 M173.6,83.7c0-5.7,4.7-10.5,10.3-10.5c5.8,0,10.5,4.9,10.5,10.5c0,5.5-4.7,10-10.5,10
	C178.3,93.7,173.6,89.2,173.6,83.7 M175.4,103.7h17.3v77.1h-17.3V103.7z M207.8,73h17v107.8h-17V73z M238.3,83.7
	c0-5.7,4.5-10.5,10.4-10.5c5.8,0,10.4,4.9,10.4,10.5c0,5.5-4.5,10-10.4,10S238.3,89.2,238.3,83.7 M239.8,103.7h17.3v77.1h-17.3
	V103.7z M277.2,159v-43h-11.1v-9.5c13.6-0.8,14.9-7.4,17.8-24.7h10.5v22h19.7v12.3h-19.7v40.2c0,10.4,3.1,13.4,11.3,13.4
	c3.6,0,6.8-1,9.7-2.1v11.9c-3.6,2.1-8.4,3.4-14.7,3.4C287.8,182.9,277.2,177.9,277.2,159 M318.6,103.7h17.9l19.9,55.4l2.6,8.4h0.3
	l2.4-8.6l17.1-55.3h16.8L369,179.3c-7.3,21.3-16.5,29.1-32.7,29.1c-4.4,0-8.4-0.8-11-1.8v-13.1c2.9,0.6,5.5,0.8,8.7,0.8
	c8.2,0,13.1-2.3,16.5-9.1L318.6,103.7L318.6,103.7z"/>
<g>
	<path class="st1" d="M404,73h17.1v107.8H404V73z M491.1,141.7c0,19.1-10,28.8-21.3,28.8c-11,0-18.6-9.1-18.6-27.2v-5.7
		c0-14.6,7.1-23,18.6-23c11.6,0,21.3,9.2,21.3,25.3V141.7z M492.4,116.7h-0.3c-4.5-9.2-13.3-14.9-25.6-14.9
		c-20.4,0-32.8,15.3-32.8,39.1v0.2c0,26.6,13.4,41.5,32.7,41.5c10.7,0,19.1-5.8,24.9-14.7h0.3c0.5,5.7,1.8,9.7,3.6,12.9h13.4v-77.1
		H496C494.2,107,492.9,111,492.4,116.7 M582.7,143.2c0,18.6-8.1,27.3-19.5,27.3c-12,0-22.3-9.4-22.3-29.2v-1.5
		c0-15.5,10.2-25,22.3-25c12.3,0,19.5,8.7,19.5,22.8V143.2z M567.3,101.8c-11.3,0-20.8,4.9-26.5,14.9h-0.3l0.3-8.1V73h-17.3v107.8
		h12.9c1.6-2.9,2.7-6.5,3.4-12.1h0.3c5.8,9.5,16,13.9,26.3,13.9c19.1,0,33.6-14.4,33.6-41.5v-0.2
		C600.1,117.7,588.3,101.8,567.3,101.8"/>
</g>
<g>
	<path class="st0" d="M45,42.4v-6.5c2.7,2.1,7.6,4.4,13.4,4.4c5.4,0,8.5-1.8,8.5-6.2c0-2.1-0.5-3.2-2.4-4.2c-2.8-1.6-10-2.1-14-4.3
		c-3.7-2.1-5.3-5.6-5.3-10.6c0-9.2,7.4-13.1,15.4-13.1c5.8,0,9.9,1.5,12.2,3.7v6.6c-2.1-1.5-7.1-3.1-11.8-3.1
		c-4.4,0-7.9,0.8-7.9,5.5c0,1.9,0.6,3.3,2.7,4.3c4,1.9,10.8,1.8,14.8,4.4c3.4,2.2,4.8,5.3,4.8,10.1c0,9.3-6.9,13.6-16,13.6
		C52.2,47,47.5,44.9,45,42.4z M80.6,0.6h8.6v20.8c1.3-5.7,5.7-9,11.4-9c6.4,0,10.5,3.8,10.5,11.5v22h-8.5V24.4
		c0-3.7-1.8-5.4-5.5-5.4c-4.5,0-7.9,3.3-7.9,9.3V46h-8.6V0.6L80.6,0.6z M116.7,4.9c0-2.7,2.1-4.9,4.9-4.9c2.7,0,5,2.1,5,4.9
		c0,2.7-2.1,4.8-5,4.8C119,9.7,116.7,7.6,116.7,4.9z M117.4,13.3h8.6v32.8h-8.6V13.3L117.4,13.3z M132.7,13.3h6.8
		c0,0,1.6,3.8,1.6,8.5v1.8c1.5-8.2,5.3-10.8,9-10.8c1.8,0,2.6,0.7,3.1,1.5v6.3c-7.7-0.2-12,2.7-12,12V46h-8.6L132.7,13.3L132.7,13.3
		z M157.8,0.6h8.5V46h-8.5V0.6z M180.4,31.4c0.3,6.8,3.9,8.9,10.3,8.9c4.4,0,7.9-1.1,9.8-2.2v4.7c-1.5,2-5.7,4-11.8,4
		c-10.7,0-17.1-6.1-17.1-17.2v-0.1c0-10.5,6.7-17.1,16-17.1c9.8,0,14.3,6.1,14.3,13.7c0,2.1-0.3,3.8-0.8,5.2L180.4,31.4L180.4,31.4z
		 M180.4,27.2h13.7v-0.7c0-5.9-2.5-8.4-6.4-8.4C183.3,18.1,180.5,21.1,180.4,27.2z M251.7,2.9h16c10.1,0,15.5,4.6,15.5,12.7
		c0,7.3-4.4,11.4-12.1,12.1L285.4,46h-10.1l-14.9-19.3V46h-8.7L251.7,2.9L251.7,2.9z M266.7,23.3c5.8,0,7.8-2.2,7.8-6.9
		c0-4.5-2.1-6.6-7.4-6.6h-6.6v13.6h6.2V23.3z M320.9,29.3c0-11,6.1-16.7,13.5-16.7c6,0,9,3,10.9,7.9c0.3-3.8,1.8-7.3,1.8-7.3h6.2V46
		h-6.7c0,0-1.5-3.2-1.6-7.5c-1.6,4.7-4.8,8.3-11,8.3C326,46.9,320.9,39.6,320.9,29.3z M344.9,30.4v-1.2c0-7.3-3.7-10.5-7.9-10.5
		c-4.4,0-7.3,3-7.3,9.4v2.3c0,6.3,2.6,10.4,7.3,10.4C341.2,40.8,344.9,36.9,344.9,30.4z M360,13.3h6.8c0,0,1.6,3.5,1.6,7.8v0.7
		c1.3-5.7,5.6-9.2,11.5-9.2c6.4,0,10.5,3.8,10.5,11.5v22h-8.5V24.5c0-3.7-1.8-5.4-5.5-5.4c-4.5,0-7.9,3.3-7.9,9.3v17.7h-8.6V13.3
		H360z M203.8,13.3h8.1l9.2,25.7l8.2-25.7h7.5l-11.5,32.5c-3.1,9.2-7.1,12.4-14,12.4c-1.9,0-3.6-0.4-4.7-0.8v-5.6
		c1.2,0.3,2.4,0.4,3.7,0.4c3.5,0,5.7-1,7.1-3.9L203.8,13.3L203.8,13.3z M286.6,13.3h8.1l9.2,25.7l8.2-25.7h7.5l-11.5,32.5
		c-3.1,9.2-7.1,12.4-14,12.4c-1.9,0-3.6-0.4-4.7-0.8v-5.6c1.2,0.3,2.4,0.4,3.7,0.4c3.5,0,5.7-1,7.1-3.9L286.6,13.3L286.6,13.3z"/>
</g>
</svg>
